<?xml version="1.0" encoding="UTF-8"?>
<svg xmlns="http://www.w3.org/2000/svg" xmlns:xlink="http://www.w3.org/1999/xlink" xmlns:svgjs="http://svgjs.com/svgjs" version="1.1" width="512" height="512" x="0" y="0" viewBox="0 0 64 64" style="enable-background:new 0 0 512 512" xml:space="preserve">
  <g>
    <g xmlns="http://www.w3.org/2000/svg">
      <path d="m26.774 45.189.644-.707c.371-.405.507-.99.556-1.581-2.372-1.389-3.974-3.958-3.974-6.901v-7.535l4-2.667.555.37c1.798 1.199 3.889 1.832 6.05 1.832h5.395v8c0 2.52-1.174 4.768-3 6.235v1.907l8.352 1.285c-.336-.395-.769-.758-1.215-1.132-1.001-.84-2.137-1.792-2.137-3.295 0-1.623.27-2.701.53-3.743.241-.966.47-1.88.47-3.257 0-2.556-1.69-4.276-1.707-4.293l-.293-.293v-.914c0-5.238-4.262-9.5-9.5-9.5s-9.5 4.262-9.5 9.5v8.221l-.684.228c-.086.03-2.316.864-2.316 4.051 0 3.533 5.307 6.297 7.352 7.063l-.703 1.873c-.175-.066-2.306-.883-4.409-2.375-.132.363-.24.839-.24 1.439 0 .757.367 1.348.998 2h.002v.002c.303.313.662.64 1.08 1.008.83.73 1.744 1.536 2.373 2.595 2.545-1.573 3.286-3.528 3.482-4.797l.064-.831c-.006-1.566-.587-2.15-1.549-3.111z" fill="#9b31a5" data-original="#000000" style=""/>
      <path d="m24.416 57.41-.364-1.094c-.341-1.021-1.158-1.797-2.052-2.589v7.273h6.074l.486-6.318c-.774.786-1.782 1.547-3.113 2.213z" fill="#9b31a5" data-original="#000000" style=""/>
      <path d="m38 30h-3.395c-2.332 0-4.596-.624-6.59-1.809l-2.015 1.344v6.465c0 3.309 2.691 6 6 6s6-2.691 6-6z" fill="#9b31a5" data-original="#000000" style=""/>
      <path d="m12 29h-2c-.552 0-1 .449-1 1v5h4.586l1.14-1.14c.176-.177.274-.412.274-.663 0-.357-.198-.679-.519-.838l-1.481-.741v-1.618c0-.551-.448-1-1-1z" fill="#9b31a5" data-original="#000000" style=""/>
      <path d="m19.21 47.364-3.288.506c-.796.121-1.61-.145-2.179-.713-.479-.479-.743-1.116-.743-1.793v-8.364h-4v9.406c0 1.405.548 2.727 1.541 3.721 1.157 1.156 2.744 1.702 4.374 1.5l4.626-.571c-.33-.595-.541-1.268-.541-2.056 0-.627.086-1.168.21-1.636z" fill="#9b31a5" data-original="#000000" style=""/>
      <path d="m31.586 48 3.414-3.414v-1.175c-.927.377-1.939.589-3 .589-.734 0-1.442-.108-2.118-.294-.081.45-.214.907-.438 1.339.681.736 1.278 1.6 1.479 2.955z" fill="#9b31a5" data-original="#000000" style=""/>
      <path d="m35.419 51.005 1.092-4.915-.162-.025-2.935 2.935z" fill="#9b31a5" data-original="#000000" style=""/>
      <path d="m51 45.364c0 .677-.264 1.314-.743 1.793-.568.569-1.385.834-2.178.713l-9.587-1.475-1.911 8.6-1.675-1.675.975 7.68h6.119v-10l2.124.008 4.961.62c1.628.202 3.217-.344 4.374-1.501.993-.994 1.541-2.316 1.541-3.721v-9.406h-4z" fill="#9b31a5" data-original="#000000" style=""/>
      <path d="m54 29h-2c-.552 0-1 .449-1 1v1.618l-1.481.741c-.321.16-.519.481-.519.838 0 .25.098.486.274.663l1.14 1.14h4.586v-5c0-.551-.448-1-1-1z" fill="#9b31a5" data-original="#000000" style=""/>
      <path d="m31.586 50h-.658c-.002.011-.002.021-.004.032l-.844 10.968h3.785l-1.268-9.989z" fill="#9b31a5" data-original="#000000" style=""/>
      <path d="m32 15c3.859 0 7-3.14 7-7s-3.141-7-7-7-7 3.14-7 7 3.141 7 7 7zm-2.293-7.707 1.293 1.293 3.293-3.293 1.414 1.414-4.707 4.707-2.707-2.707z" fill="#9b31a5" data-original="#000000" style=""/>
      <path d="m9 11.723c-.595-.347-1-.985-1-1.723 0-1.105.895-2 2-2s2 .895 2 2c0 .738-.405 1.376-1 1.723v7.277h3.025c.061-.588.361-1.125.837-1.43 2.591-1.667 4.138-4.496 4.138-7.57 0-2.56-1.096-5.007-3.006-6.713-1.908-1.706-4.472-2.518-7.039-2.228-4.052.459-7.365 3.723-7.88 7.763-.447 3.508 1.118 6.865 4.085 8.761.454.29.743.821.811 1.417h3.029z" fill="#9b31a5" data-original="#000000" style=""/>
      <path d="m14 21h-8c0 2.206 1.794 4 4 4s4-1.794 4-4z" fill="#9b31a5" data-original="#000000" style=""/>
      <path d="m63 9.279-2.455-.819 1.157-2.314-3.848-3.848-2.315 1.158-.818-2.456h-5.441l-.818 2.456-2.315-1.158-3.848 3.848 1.157 2.314-2.456.819v5.441l2.455.819-1.157 2.314 3.848 3.848 2.315-1.158.818 2.457h5.441l.818-2.456 2.315 1.158 3.848-3.848-1.157-2.314 2.456-.819zm-11 6.721c-2.209 0-4-1.791-4-4s1.791-4 4-4 4 1.791 4 4-1.791 4-4 4z" fill="#9b31a5" data-original="#000000" style=""/>
    </g>
  </g>
</svg>
